<svg width="721" height="520" viewBox="0 0 721 520" fill="none" xmlns="http://www.w3.org/2000/svg">
<g clip-path="url(#clip0_69_1492)">
<rect width="721" height="520" rx="18" fill="#07575D"/>
<rect x="552.387" y="148" width="147.124" height="299" rx="20" transform="rotate(15 552.387 148)" fill="#0B646B"/>
<rect x="552.74" y="148.612" width="146.124" height="298" rx="19.5" transform="rotate(15 552.74 148.612)" stroke="black" stroke-opacity="0.05"/>
<rect x="34" y="181.079" width="147.124" height="299" rx="20" transform="rotate(-15 34 181.079)" fill="#0B646B"/>
<rect x="34.6124" y="181.432" width="146.124" height="298" rx="19.5" transform="rotate(-15 34.6124 181.432)" stroke="black" stroke-opacity="0.05"/>
<rect x="130.508" y="98.5075" width="459.985" height="394.976" rx="20.4925" fill="white"/>
<rect x="130.508" y="98.5075" width="459.985" height="394.976" rx="20.4925" stroke="#E4E4E4" stroke-width="0.984978"/>
<g filter="url(#filter0_d_69_1492)">
<rect x="171.384" y="116.731" width="173.356" height="194.041" rx="9.84978" fill="white"/>
<rect x="171.876" y="117.223" width="172.371" height="193.056" rx="9.3573" stroke="#D6D6D6" stroke-width="0.984978"/>
</g>
<path d="M215.858 262.27V260.142C214.692 260.047 213.738 259.795 212.998 259.385C212.273 258.976 211.705 258.495 211.296 257.943C210.886 257.392 210.594 256.856 210.421 256.336C210.263 255.8 210.161 255.359 210.114 255.012C210.082 254.65 210.066 254.468 210.066 254.468H212.785C212.785 254.468 212.801 254.618 212.832 254.918C212.879 255.201 212.99 255.548 213.163 255.958C213.352 256.368 213.66 256.754 214.085 257.116C214.511 257.463 215.102 257.699 215.858 257.825V252.081L215.74 252.057C214.779 251.837 213.904 251.545 213.116 251.183C212.344 250.82 211.721 250.324 211.248 249.693C210.791 249.047 210.563 248.22 210.563 247.211C210.563 246.218 210.807 245.367 211.296 244.658C211.784 243.949 212.43 243.389 213.234 242.98C214.038 242.57 214.912 242.318 215.858 242.223V240.143H217.726V242.271C218.734 242.397 219.562 242.649 220.208 243.027C220.854 243.405 221.358 243.839 221.721 244.327C222.099 244.816 222.375 245.296 222.548 245.769C222.721 246.226 222.832 246.612 222.879 246.927C222.926 247.227 222.95 247.377 222.95 247.377H220.255C220.255 247.377 220.231 247.258 220.184 247.022C220.153 246.786 220.058 246.502 219.9 246.171C219.743 245.84 219.491 245.525 219.144 245.225C218.797 244.926 218.324 244.697 217.726 244.54V249.953L217.938 250.001C218.537 250.142 219.144 250.316 219.759 250.521C220.373 250.726 220.933 251.009 221.437 251.372C221.957 251.718 222.375 252.183 222.69 252.766C223.005 253.334 223.163 254.067 223.163 254.965C223.163 255.895 222.926 256.73 222.453 257.471C221.996 258.211 221.358 258.818 220.539 259.291C219.719 259.748 218.781 260.032 217.726 260.142V262.27H215.858ZM213.21 247.14C213.21 247.755 213.423 248.251 213.849 248.63C214.274 248.992 214.944 249.291 215.858 249.528V244.469C215.039 244.595 214.392 244.91 213.92 245.415C213.447 245.903 213.21 246.478 213.21 247.14ZM220.491 254.989C220.491 254.264 220.247 253.72 219.759 253.357C219.27 252.995 218.592 252.703 217.726 252.483V257.825C218.529 257.683 219.191 257.36 219.711 256.856C220.231 256.352 220.491 255.729 220.491 254.989ZM231.424 242.436V259.929H228.706V246.715L225.396 246.738V245.107L225.964 244.942C226.846 244.674 227.555 244.374 228.091 244.043C228.643 243.713 229.163 243.255 229.651 242.672L229.864 242.436H231.424ZM242.213 260.142C241.094 260.142 240.101 259.906 239.235 259.433C238.384 258.96 237.666 258.306 237.083 257.471C236.5 256.635 236.059 255.682 235.76 254.61C235.46 253.523 235.31 252.372 235.31 251.159C235.31 249.945 235.46 248.803 235.76 247.731C236.059 246.644 236.5 245.682 237.083 244.847C237.666 244.012 238.384 243.358 239.235 242.885C240.101 242.412 241.094 242.176 242.213 242.176C243.332 242.176 244.317 242.412 245.168 242.885C246.035 243.358 246.76 244.012 247.343 244.847C247.926 245.682 248.367 246.644 248.667 247.731C248.966 248.803 249.116 249.945 249.116 251.159C249.116 252.372 248.966 253.523 248.667 254.61C248.367 255.682 247.926 256.635 247.343 257.471C246.76 258.306 246.035 258.96 245.168 259.433C244.317 259.906 243.332 260.142 242.213 260.142ZM242.213 257.66C243.379 257.66 244.349 257.116 245.121 256.029C245.893 254.926 246.279 253.302 246.279 251.159C246.279 249.031 245.893 247.424 245.121 246.336C244.349 245.249 243.379 244.705 242.213 244.705C241.047 244.705 240.078 245.249 239.305 246.336C238.533 247.424 238.147 249.031 238.147 251.159C238.147 253.287 238.525 254.902 239.282 256.005C240.054 257.108 241.031 257.66 242.213 257.66ZM252.416 263.002L254.212 260.095C253.771 260.063 253.401 259.898 253.101 259.598C252.818 259.283 252.676 258.897 252.676 258.44C252.676 257.936 252.841 257.534 253.172 257.234C253.519 256.919 253.929 256.762 254.401 256.762C254.89 256.762 255.3 256.919 255.631 257.234C255.977 257.534 256.151 257.951 256.151 258.487C256.151 258.976 255.97 259.527 255.607 260.142C255.26 260.757 254.677 261.631 253.858 262.766L253.692 263.002H252.416ZM266.348 260.142C265.23 260.142 264.237 259.906 263.37 259.433C262.519 258.96 261.802 258.306 261.219 257.471C260.636 256.635 260.194 255.682 259.895 254.61C259.595 253.523 259.446 252.372 259.446 251.159C259.446 249.945 259.595 248.803 259.895 247.731C260.194 246.644 260.636 245.682 261.219 244.847C261.802 244.012 262.519 243.358 263.37 242.885C264.237 242.412 265.23 242.176 266.348 242.176C267.467 242.176 268.452 242.412 269.303 242.885C270.17 243.358 270.895 244.012 271.478 244.847C272.061 245.682 272.503 246.644 272.802 247.731C273.101 248.803 273.251 249.945 273.251 251.159C273.251 252.372 273.101 253.523 272.802 254.61C272.503 255.682 272.061 256.635 271.478 257.471C270.895 258.306 270.17 258.96 269.303 259.433C268.452 259.906 267.467 260.142 266.348 260.142ZM266.348 257.66C267.515 257.66 268.484 257.116 269.256 256.029C270.028 254.926 270.414 253.302 270.414 251.159C270.414 249.031 270.028 247.424 269.256 246.336C268.484 245.249 267.515 244.705 266.348 244.705C265.182 244.705 264.213 245.249 263.441 246.336C262.669 247.424 262.282 249.031 262.282 251.159C262.282 253.287 262.661 254.902 263.417 256.005C264.189 257.108 265.167 257.66 266.348 257.66ZM282.745 260.142C281.626 260.142 280.633 259.906 279.766 259.433C278.915 258.96 278.198 258.306 277.615 257.471C277.032 256.635 276.591 255.682 276.291 254.61C275.992 253.523 275.842 252.372 275.842 251.159C275.842 249.945 275.992 248.803 276.291 247.731C276.591 246.644 277.032 245.682 277.615 244.847C278.198 244.012 278.915 243.358 279.766 242.885C280.633 242.412 281.626 242.176 282.745 242.176C283.864 242.176 284.849 242.412 285.7 242.885C286.566 243.358 287.291 244.012 287.874 244.847C288.458 245.682 288.899 246.644 289.198 247.731C289.498 248.803 289.647 249.945 289.647 251.159C289.647 252.372 289.498 253.523 289.198 254.61C288.899 255.682 288.458 256.635 287.874 257.471C287.291 258.306 286.566 258.96 285.7 259.433C284.849 259.906 283.864 260.142 282.745 260.142ZM282.745 257.66C283.911 257.66 284.88 257.116 285.652 256.029C286.425 254.926 286.811 253.302 286.811 251.159C286.811 249.031 286.425 247.424 285.652 246.336C284.88 245.249 283.911 244.705 282.745 244.705C281.578 244.705 280.609 245.249 279.837 246.336C279.065 247.424 278.679 249.031 278.679 251.159C278.679 253.287 279.057 254.902 279.813 256.005C280.586 257.108 281.563 257.66 282.745 257.66ZM299.141 260.142C298.022 260.142 297.029 259.906 296.162 259.433C295.311 258.96 294.594 258.306 294.011 257.471C293.428 256.635 292.987 255.682 292.687 254.61C292.388 253.523 292.238 252.372 292.238 251.159C292.238 249.945 292.388 248.803 292.687 247.731C292.987 246.644 293.428 245.682 294.011 244.847C294.594 244.012 295.311 243.358 296.162 242.885C297.029 242.412 298.022 242.176 299.141 242.176C300.26 242.176 301.245 242.412 302.096 242.885C302.963 243.358 303.688 244.012 304.271 244.847C304.854 245.682 305.295 246.644 305.594 247.731C305.894 248.803 306.044 249.945 306.044 251.159C306.044 252.372 305.894 253.523 305.594 254.61C305.295 255.682 304.854 256.635 304.271 257.471C303.688 258.306 302.963 258.96 302.096 259.433C301.245 259.906 300.26 260.142 299.141 260.142ZM299.141 257.66C300.307 257.66 301.276 257.116 302.049 256.029C302.821 254.926 303.207 253.302 303.207 251.159C303.207 249.031 302.821 247.424 302.049 246.336C301.276 245.249 300.307 244.705 299.141 244.705C297.975 244.705 297.005 245.249 296.233 246.336C295.461 247.424 295.075 249.031 295.075 251.159C295.075 253.287 295.453 254.902 296.21 256.005C296.982 257.108 297.959 257.66 299.141 257.66Z" fill="#111111"/>
<path d="M198.151 289.329V280.296H195.366V279.055H202.26V280.296H199.516V289.329H198.151ZM205.972 289.494C205.255 289.494 204.607 289.329 204.028 288.998C203.448 288.658 202.989 288.193 202.649 287.605C202.308 287.017 202.138 286.35 202.138 285.605C202.138 284.861 202.304 284.199 202.635 283.62C202.975 283.041 203.435 282.581 204.014 282.241C204.593 281.901 205.246 281.73 205.972 281.73C206.689 281.73 207.337 281.901 207.916 282.241C208.495 282.572 208.95 283.027 209.281 283.606C209.622 284.185 209.792 284.852 209.792 285.605C209.792 286.359 209.617 287.03 209.268 287.619C208.918 288.198 208.454 288.658 207.875 288.998C207.305 289.329 206.671 289.494 205.972 289.494ZM205.972 288.253C206.432 288.253 206.845 288.138 207.213 287.908C207.59 287.678 207.884 287.361 208.095 286.957C208.316 286.552 208.426 286.102 208.426 285.605C208.426 285.1 208.316 284.654 208.095 284.268C207.884 283.872 207.59 283.56 207.213 283.33C206.845 283.091 206.432 282.972 205.972 282.972C205.503 282.972 205.08 283.091 204.703 283.33C204.335 283.56 204.041 283.872 203.821 284.268C203.6 284.654 203.49 285.1 203.49 285.605C203.49 286.102 203.6 286.552 203.821 286.957C204.041 287.361 204.335 287.678 204.703 287.908C205.08 288.138 205.503 288.253 205.972 288.253ZM214.35 289.411C213.623 289.411 213.062 289.205 212.667 288.791C212.281 288.377 212.088 287.793 212.088 287.04V283.123H210.737V281.896H211.012C211.343 281.896 211.605 281.795 211.798 281.593C211.991 281.39 212.088 281.124 212.088 280.793V280.186H213.37V281.896H215.039V283.123H213.37V286.998C213.37 287.246 213.407 287.462 213.481 287.646C213.564 287.83 213.697 287.977 213.881 288.088C214.065 288.189 214.308 288.239 214.612 288.239C214.676 288.239 214.754 288.235 214.846 288.225C214.947 288.216 215.039 288.207 215.122 288.198V289.329C215.002 289.356 214.869 289.375 214.722 289.384C214.575 289.402 214.451 289.411 214.35 289.411ZM218.881 289.494C218.394 289.494 217.962 289.407 217.585 289.232C217.218 289.048 216.928 288.8 216.717 288.487C216.505 288.166 216.399 287.798 216.399 287.384C216.399 286.989 216.482 286.635 216.648 286.322C216.822 286.001 217.089 285.73 217.447 285.509C217.815 285.288 218.275 285.132 218.826 285.04L221.584 284.585V285.661L219.116 286.074C218.638 286.157 218.289 286.309 218.068 286.529C217.856 286.75 217.751 287.021 217.751 287.343C217.751 287.646 217.87 287.899 218.109 288.101C218.357 288.304 218.665 288.405 219.033 288.405C219.502 288.405 219.907 288.308 220.247 288.115C220.596 287.913 220.867 287.642 221.06 287.302C221.263 286.961 221.364 286.584 221.364 286.171V284.282C221.364 283.877 221.212 283.551 220.909 283.303C220.614 283.045 220.224 282.916 219.736 282.916C219.314 282.916 218.937 283.027 218.606 283.247C218.284 283.459 218.045 283.744 217.889 284.102L216.772 283.523C216.91 283.183 217.13 282.88 217.434 282.613C217.737 282.337 218.091 282.121 218.495 281.965C218.9 281.809 219.323 281.73 219.764 281.73C220.334 281.73 220.835 281.841 221.267 282.061C221.699 282.273 222.035 282.572 222.274 282.958C222.522 283.335 222.646 283.776 222.646 284.282V289.329H221.391V287.922L221.626 288.005C221.469 288.299 221.258 288.556 220.991 288.777C220.725 288.998 220.412 289.172 220.054 289.301C219.695 289.43 219.304 289.494 218.881 289.494ZM224.634 289.329V278.89H225.917V289.329H224.634ZM234.138 289.494C233.54 289.494 232.993 289.361 232.497 289.094C232.01 288.828 231.633 288.451 231.366 287.963L231.545 287.743V289.329H230.29V278.89H231.573V283.496L231.38 283.178C231.656 282.737 232.033 282.388 232.511 282.13C232.989 281.864 233.536 281.73 234.152 281.73C234.85 281.73 235.475 281.901 236.027 282.241C236.588 282.581 237.029 283.045 237.351 283.633C237.673 284.213 237.833 284.875 237.833 285.619C237.833 286.345 237.673 287.003 237.351 287.591C237.029 288.179 236.588 288.644 236.027 288.984C235.475 289.324 234.846 289.494 234.138 289.494ZM234.041 288.253C234.51 288.253 234.928 288.138 235.296 287.908C235.664 287.678 235.949 287.366 236.151 286.971C236.362 286.566 236.468 286.116 236.468 285.619C236.468 285.104 236.362 284.654 236.151 284.268C235.949 283.872 235.664 283.56 235.296 283.33C234.928 283.091 234.51 282.972 234.041 282.972C233.572 282.972 233.149 283.086 232.773 283.316C232.405 283.546 232.111 283.863 231.89 284.268C231.679 284.663 231.573 285.114 231.573 285.619C231.573 286.116 231.679 286.566 231.89 286.971C232.111 287.366 232.405 287.678 232.773 287.908C233.149 288.138 233.572 288.253 234.041 288.253ZM242.149 289.494C241.616 289.494 241.133 289.37 240.701 289.122C240.278 288.874 239.947 288.529 239.708 288.088C239.478 287.637 239.363 287.122 239.363 286.543V281.896H240.646V286.405C240.646 286.773 240.719 287.095 240.866 287.37C241.023 287.646 241.234 287.862 241.501 288.019C241.776 288.175 242.089 288.253 242.438 288.253C242.788 288.253 243.096 288.175 243.362 288.019C243.638 287.862 243.85 287.637 243.997 287.343C244.153 287.049 244.231 286.699 244.231 286.295V281.896H245.527V289.329H244.272V287.881L244.479 288.005C244.305 288.474 244.006 288.841 243.583 289.108C243.169 289.365 242.691 289.494 242.149 289.494ZM250.893 289.494C250.194 289.494 249.564 289.324 249.003 288.984C248.452 288.644 248.015 288.179 247.693 287.591C247.372 287.003 247.211 286.345 247.211 285.619C247.211 284.875 247.372 284.213 247.693 283.633C248.015 283.045 248.452 282.581 249.003 282.241C249.564 281.901 250.194 281.73 250.893 281.73C251.508 281.73 252.055 281.864 252.534 282.13C253.012 282.388 253.388 282.737 253.664 283.178L253.457 283.496V278.89H254.754V289.329H253.499V287.743L253.664 287.963C253.407 288.451 253.03 288.828 252.534 289.094C252.046 289.361 251.499 289.494 250.893 289.494ZM251.003 288.253C251.472 288.253 251.89 288.138 252.258 287.908C252.625 287.678 252.915 287.366 253.126 286.971C253.347 286.566 253.457 286.116 253.457 285.619C253.457 285.114 253.347 284.663 253.126 284.268C252.915 283.863 252.625 283.546 252.258 283.316C251.89 283.086 251.472 282.972 251.003 282.972C250.543 282.972 250.125 283.091 249.748 283.33C249.38 283.56 249.091 283.872 248.879 284.268C248.668 284.654 248.562 285.104 248.562 285.619C248.562 286.116 248.668 286.566 248.879 286.971C249.091 287.366 249.38 287.678 249.748 287.908C250.116 288.138 250.534 288.253 251.003 288.253ZM260.283 292.362C259.759 292.362 259.271 292.28 258.821 292.114C258.38 291.949 257.998 291.719 257.676 291.425C257.364 291.14 257.125 290.804 256.959 290.418L258.159 289.866C258.288 290.216 258.531 290.51 258.89 290.749C259.258 290.997 259.717 291.121 260.269 291.121C260.692 291.121 261.073 291.039 261.413 290.873C261.763 290.717 262.038 290.478 262.241 290.156C262.443 289.843 262.544 289.462 262.544 289.011V287.343L262.779 287.591C262.521 288.097 262.149 288.483 261.662 288.749C261.184 289.016 260.655 289.149 260.076 289.149C259.377 289.149 258.752 288.988 258.2 288.667C257.649 288.336 257.217 287.89 256.904 287.329C256.592 286.759 256.435 286.129 256.435 285.44C256.435 284.741 256.592 284.112 256.904 283.551C257.217 282.99 257.644 282.549 258.187 282.227C258.738 281.896 259.363 281.73 260.062 281.73C260.641 281.73 261.165 281.864 261.634 282.13C262.112 282.388 262.494 282.746 262.779 283.206L262.585 283.551V281.896H263.84V289.011C263.84 289.655 263.689 290.23 263.385 290.735C263.082 291.241 262.659 291.636 262.117 291.921C261.583 292.215 260.972 292.362 260.283 292.362ZM260.186 287.908C260.627 287.908 261.023 287.798 261.372 287.577C261.731 287.357 262.015 287.063 262.227 286.695C262.438 286.318 262.544 285.9 262.544 285.44C262.544 284.989 262.438 284.576 262.227 284.199C262.015 283.822 261.731 283.523 261.372 283.303C261.023 283.082 260.627 282.972 260.186 282.972C259.736 282.972 259.326 283.082 258.959 283.303C258.591 283.523 258.301 283.822 258.09 284.199C257.888 284.567 257.787 284.98 257.787 285.44C257.787 285.9 257.888 286.318 258.09 286.695C258.301 287.063 258.586 287.357 258.945 287.577C259.313 287.798 259.726 287.908 260.186 287.908ZM269.248 289.494C268.531 289.494 267.892 289.324 267.332 288.984C266.771 288.644 266.33 288.179 266.008 287.591C265.686 286.994 265.525 286.327 265.525 285.592C265.525 284.847 265.681 284.185 265.994 283.606C266.316 283.027 266.748 282.572 267.29 282.241C267.842 281.901 268.458 281.73 269.138 281.73C269.69 281.73 270.177 281.832 270.6 282.034C271.032 282.227 271.395 282.494 271.689 282.834C271.993 283.165 272.222 283.546 272.379 283.978C272.544 284.401 272.627 284.842 272.627 285.302C272.627 285.403 272.618 285.518 272.599 285.647C272.59 285.766 272.576 285.881 272.558 285.992H266.463V284.888H271.813L271.207 285.385C271.289 284.907 271.243 284.479 271.069 284.102C270.894 283.725 270.637 283.427 270.296 283.206C269.956 282.985 269.57 282.875 269.138 282.875C268.706 282.875 268.311 282.985 267.952 283.206C267.594 283.427 267.313 283.744 267.111 284.157C266.918 284.562 266.84 285.045 266.877 285.605C266.84 286.148 266.923 286.626 267.125 287.04C267.336 287.444 267.63 287.761 268.007 287.991C268.393 288.212 268.812 288.322 269.262 288.322C269.759 288.322 270.177 288.207 270.517 287.977C270.857 287.747 271.133 287.453 271.344 287.095L272.42 287.646C272.273 287.986 272.043 288.299 271.731 288.584C271.427 288.86 271.064 289.08 270.641 289.246C270.227 289.411 269.763 289.494 269.248 289.494ZM277.319 289.411C276.593 289.411 276.032 289.205 275.637 288.791C275.25 288.377 275.057 287.793 275.057 287.04V283.123H273.706V281.896H273.982C274.313 281.896 274.575 281.795 274.768 281.593C274.961 281.39 275.057 281.124 275.057 280.793V280.186H276.34V281.896H278.008V283.123H276.34V286.998C276.34 287.246 276.377 287.462 276.45 287.646C276.533 287.83 276.666 287.977 276.85 288.088C277.034 288.189 277.278 288.239 277.581 288.239C277.645 288.239 277.723 288.235 277.815 288.225C277.916 288.216 278.008 288.207 278.091 288.198V289.329C277.972 289.356 277.838 289.375 277.691 289.384C277.544 289.402 277.42 289.411 277.319 289.411ZM284.811 289.494C284.067 289.494 283.419 289.31 282.867 288.943C282.315 288.575 281.925 288.078 281.695 287.453L282.715 286.957C282.927 287.398 283.216 287.747 283.584 288.005C283.952 288.262 284.361 288.391 284.811 288.391C285.216 288.391 285.551 288.294 285.818 288.101C286.085 287.908 286.218 287.655 286.218 287.343C286.218 287.122 286.154 286.948 286.025 286.819C285.905 286.681 285.758 286.575 285.584 286.502C285.409 286.419 285.248 286.359 285.101 286.322L283.984 286.005C283.313 285.812 282.821 285.536 282.508 285.178C282.205 284.819 282.053 284.401 282.053 283.923C282.053 283.482 282.164 283.1 282.384 282.779C282.614 282.448 282.922 282.19 283.308 282.006C283.704 281.822 284.145 281.73 284.632 281.73C285.285 281.73 285.869 281.896 286.383 282.227C286.907 282.558 287.28 283.022 287.5 283.62L286.452 284.102C286.287 283.716 286.039 283.413 285.708 283.192C285.377 282.962 285.004 282.847 284.591 282.847C284.214 282.847 283.915 282.944 283.694 283.137C283.474 283.321 283.363 283.555 283.363 283.84C283.363 284.052 283.419 284.226 283.529 284.364C283.639 284.493 283.773 284.594 283.929 284.668C284.085 284.732 284.237 284.787 284.384 284.833L285.597 285.192C286.204 285.366 286.673 285.638 287.004 286.005C287.344 286.373 287.514 286.814 287.514 287.329C287.514 287.743 287.399 288.115 287.169 288.446C286.94 288.777 286.622 289.034 286.218 289.218C285.813 289.402 285.345 289.494 284.811 289.494ZM291.372 289.494C290.884 289.494 290.452 289.407 290.075 289.232C289.708 289.048 289.418 288.8 289.207 288.487C288.995 288.166 288.89 287.798 288.89 287.384C288.89 286.989 288.972 286.635 289.138 286.322C289.312 286.001 289.579 285.73 289.938 285.509C290.305 285.288 290.765 285.132 291.317 285.04L294.074 284.585V285.661L291.606 286.074C291.128 286.157 290.779 286.309 290.558 286.529C290.347 286.75 290.241 287.021 290.241 287.343C290.241 287.646 290.36 287.899 290.599 288.101C290.848 288.304 291.156 288.405 291.523 288.405C291.992 288.405 292.397 288.308 292.737 288.115C293.086 287.913 293.357 287.642 293.55 287.302C293.753 286.961 293.854 286.584 293.854 286.171V284.282C293.854 283.877 293.702 283.551 293.399 283.303C293.105 283.045 292.714 282.916 292.227 282.916C291.804 282.916 291.427 283.027 291.096 283.247C290.774 283.459 290.535 283.744 290.379 284.102L289.262 283.523C289.4 283.183 289.62 282.88 289.924 282.613C290.227 282.337 290.581 282.121 290.986 281.965C291.39 281.809 291.813 281.73 292.254 281.73C292.824 281.73 293.325 281.841 293.757 282.061C294.189 282.273 294.525 282.572 294.764 282.958C295.012 283.335 295.136 283.776 295.136 284.282V289.329H293.881V287.922L294.116 288.005C293.96 288.299 293.748 288.556 293.481 288.777C293.215 288.998 292.902 289.172 292.544 289.301C292.185 289.43 291.795 289.494 291.372 289.494ZM299.058 289.329L296.149 281.896H297.583L299.913 288.184H299.417L301.761 281.896H303.195L300.272 289.329H299.058ZM307.628 289.494C306.911 289.494 306.272 289.324 305.711 288.984C305.15 288.644 304.709 288.179 304.387 287.591C304.066 286.994 303.905 286.327 303.905 285.592C303.905 284.847 304.061 284.185 304.374 283.606C304.695 283.027 305.127 282.572 305.67 282.241C306.221 281.901 306.837 281.73 307.518 281.73C308.069 281.73 308.556 281.832 308.979 282.034C309.411 282.227 309.774 282.494 310.069 282.834C310.372 283.165 310.602 283.546 310.758 283.978C310.924 284.401 311.006 284.842 311.006 285.302C311.006 285.403 310.997 285.518 310.979 285.647C310.97 285.766 310.956 285.881 310.937 285.992H304.842V284.888H310.193L309.586 285.385C309.669 284.907 309.623 284.479 309.448 284.102C309.273 283.725 309.016 283.427 308.676 283.206C308.336 282.985 307.95 282.875 307.518 282.875C307.086 282.875 306.69 282.985 306.332 283.206C305.973 283.427 305.693 283.744 305.49 284.157C305.297 284.562 305.219 285.045 305.256 285.605C305.219 286.148 305.302 286.626 305.504 287.04C305.716 287.444 306.01 287.761 306.387 287.991C306.773 288.212 307.191 288.322 307.642 288.322C308.138 288.322 308.556 288.207 308.897 287.977C309.237 287.747 309.512 287.453 309.724 287.095L310.8 287.646C310.652 287.986 310.423 288.299 310.11 288.584C309.807 288.86 309.444 289.08 309.021 289.246C308.607 289.411 308.143 289.494 307.628 289.494ZM316.057 289.494C315.358 289.494 314.729 289.324 314.168 288.984C313.616 288.644 313.18 288.179 312.858 287.591C312.536 287.003 312.375 286.345 312.375 285.619C312.375 284.875 312.536 284.213 312.858 283.633C313.18 283.045 313.616 282.581 314.168 282.241C314.729 281.901 315.358 281.73 316.057 281.73C316.673 281.73 317.22 281.864 317.698 282.13C318.176 282.388 318.553 282.737 318.829 283.178L318.622 283.496V278.89H319.918V289.329H318.663V287.743L318.829 287.963C318.571 288.451 318.194 288.828 317.698 289.094C317.211 289.361 316.664 289.494 316.057 289.494ZM316.167 288.253C316.636 288.253 317.054 288.138 317.422 287.908C317.79 287.678 318.079 287.366 318.291 286.971C318.512 286.566 318.622 286.116 318.622 285.619C318.622 285.114 318.512 284.663 318.291 284.268C318.079 283.863 317.79 283.546 317.422 283.316C317.054 283.086 316.636 282.972 316.167 282.972C315.708 282.972 315.289 283.091 314.912 283.33C314.545 283.56 314.255 283.872 314.044 284.268C313.832 284.654 313.726 285.104 313.726 285.619C313.726 286.116 313.832 286.566 314.044 286.971C314.255 287.366 314.545 287.678 314.912 287.908C315.28 288.138 315.698 288.253 316.167 288.253Z" fill="#767676"/>
<g clip-path="url(#clip1_69_1492)">
<path fill-rule="evenodd" clip-rule="evenodd" d="M246.388 160.925C235.349 169.922 228.582 179.966 224.999 190.471C223.486 195.491 223.208 200.536 222.615 205.894C222.444 207.429 222.511 209.027 222.253 210.62C221.778 213.529 215.172 218.838 216.908 221.315C218.295 223.294 221.277 222.216 227.108 221.002C234.175 219.619 238.022 221.529 243.195 221.971C251.463 223.488 264.668 223.488 272.938 221.971C278.109 221.527 281.958 219.619 289.024 221.002C294.855 222.216 297.84 223.296 299.225 221.315C300.958 218.838 294.353 213.529 293.88 210.62C293.622 209.027 293.687 207.429 293.518 205.894C292.923 200.536 292.647 195.491 291.132 190.471C287.549 179.966 281.284 169.369 269.742 160.925C267.022 158.935 265.137 154.832 267.579 151.956L276.667 141.259C277.665 140.235 278.42 139.386 278.034 138.831C277.65 138.276 276.891 138.565 275.045 138.577C272.89 138.782 271.31 138.57 270.668 137.682C262.379 130.762 253.754 130.762 245.465 137.682C244.822 138.57 243.242 138.782 241.087 138.577C239.241 138.565 238.483 138.276 238.099 138.831C237.713 139.386 238.467 140.235 239.466 141.259L248.553 151.956C250.709 154.497 248.65 159.08 246.388 160.925Z" fill="#FAD94F"/>
<path fill-rule="evenodd" clip-rule="evenodd" d="M260.519 157C261.264 159.351 264.043 161.867 265.588 163.773C266.322 164.679 268.182 168.444 266.427 169.29C264.398 170.269 261.908 166.427 261.329 165.181C260.842 164.138 259.5 159.353 258.336 158.525C255.931 160.187 255.171 164.353 253.482 166.35C252.848 167.101 250.921 169.714 249.598 168.926C248.276 168.141 250.057 165.477 250.537 164.64C251.173 163.532 252.131 162.441 252.899 161.395C254.045 159.854 255.003 158.203 255.758 156.469L255.785 156.404L255.825 156.344C256.323 155.5 250.811 149.042 250.129 147.623C249.771 146.875 246.907 141.592 249.598 141.755C250.653 141.82 252.091 144.067 252.612 144.798C254.851 147.942 255.257 151.553 258.384 154.42C260.283 152.828 261.374 148.423 263.117 146.315C263.811 145.476 266.878 141.746 268.038 143.781C268.783 145.088 265.014 148.419 264.219 150.065C263.05 152.48 262.203 154.831 260.519 157ZM257.722 219.373C218.565 219.373 228.153 196.015 231.157 177.707C228.582 181.731 226.515 186.012 224.995 190.468C223.482 195.488 223.204 200.533 222.611 205.891C222.44 207.426 222.507 209.024 222.249 210.617C221.774 213.526 215.169 218.835 216.904 221.312C218.291 223.291 221.273 222.213 227.105 220.999C234.171 219.616 238.018 221.526 243.191 221.968C251.459 223.485 264.664 223.485 272.934 221.968C278.105 221.524 281.954 219.616 289.02 220.999C294.851 222.213 297.836 223.293 299.221 221.312C300.954 218.835 294.349 213.526 293.876 210.617C293.618 209.024 293.683 207.426 293.514 205.891C292.919 200.533 292.643 195.488 291.128 190.468C289.714 186.323 287.882 182.163 285.472 178.127C287.133 193.677 296.354 219.373 257.722 219.373Z" fill="#FAC752"/>
<path fill-rule="evenodd" clip-rule="evenodd" d="M247.685 139.377C257.077 137.126 259.953 143.487 268.869 139.323C268.536 139.227 268.246 139.033 268.044 138.77C261.683 133.458 255.064 133.458 248.703 138.77C248.49 139.064 248.144 139.261 247.685 139.377Z" fill="#FCF5AB"/>
<path d="M259.763 203.769V193.495C260.945 193.776 262.066 194.176 263.019 194.925C264.633 196.19 265.438 197.953 264.759 199.865C264.463 200.67 263.97 201.4 263.317 202C262.612 202.658 261.76 203.167 260.819 203.49L259.763 203.769ZM250.388 178.923C249.367 179.868 248.596 181.017 248.136 182.28C247.019 185.423 248.221 188.465 250.902 190.568C252.535 191.849 254.338 192.418 256.363 192.833V203.658C254.529 203.213 252.9 202.194 251.55 200.982C251.392 200.832 251.203 200.713 250.994 200.631C250.785 200.55 250.56 200.508 250.334 200.508C250.107 200.508 249.882 200.549 249.673 200.63C249.464 200.711 249.274 200.83 249.116 200.98C248.958 201.129 248.833 201.306 248.751 201.501C248.668 201.695 248.629 201.903 248.634 202.111C248.64 202.32 248.692 202.525 248.786 202.715C248.879 202.906 249.014 203.076 249.18 203.218C251.176 205.009 253.605 206.401 256.363 206.861V208.015C256.384 208.417 256.572 208.796 256.889 209.074C257.205 209.351 257.626 209.506 258.063 209.506C258.5 209.506 258.92 209.351 259.237 209.074C259.554 208.796 259.742 208.417 259.763 208.015V206.933C262.032 206.651 264.134 205.684 265.742 204.184C266.762 203.239 267.532 202.091 267.991 200.828C269.108 197.689 267.909 194.646 265.226 192.541C263.59 191.26 261.79 190.689 259.763 190.274V179.449C261.597 179.897 263.226 180.917 264.575 182.126C264.735 182.269 264.924 182.382 265.132 182.458C265.339 182.534 265.56 182.571 265.783 182.569C266.006 182.566 266.227 182.523 266.432 182.442C266.637 182.36 266.822 182.243 266.978 182.096C267.133 181.949 267.256 181.775 267.339 181.584C267.421 181.394 267.462 181.19 267.459 180.985C267.456 180.779 267.409 180.577 267.321 180.388C267.233 180.2 267.105 180.029 266.945 179.886C264.95 178.095 262.521 176.707 259.763 176.243V175.088C259.763 174.674 259.584 174.276 259.265 173.982C258.946 173.689 258.514 173.524 258.063 173.524C257.612 173.524 257.179 173.689 256.861 173.982C256.542 174.276 256.363 174.674 256.363 175.088V176.17C255.594 176.266 254.838 176.444 254.111 176.694C252.711 177.184 251.441 177.944 250.388 178.923ZM256.363 179.347V189.622C255.181 189.339 254.058 188.938 253.106 188.192C251.493 186.925 250.685 185.162 251.367 183.251C251.653 182.447 252.167 181.718 252.809 181.116C253.516 180.459 254.369 179.951 255.309 179.625L256.363 179.347ZM249.348 155.142C249.156 154.878 249.05 154.568 249.043 154.251C249.036 153.933 249.129 153.62 249.309 153.35C249.49 153.079 249.751 152.861 250.062 152.723C250.373 152.585 250.721 152.532 251.064 152.57L265.651 153.88C266.018 153.921 266.362 154.064 266.637 154.291C266.912 154.518 267.104 154.818 267.188 155.149C267.652 155.183 268.085 155.382 268.393 155.704C268.702 156.026 268.863 156.445 268.843 156.873C268.823 157.302 268.623 157.707 268.285 158.003C267.948 158.298 267.498 158.462 267.032 158.46H249.096C248.854 158.467 248.613 158.43 248.387 158.35C248.161 158.27 247.955 158.149 247.781 157.994C247.607 157.839 247.469 157.654 247.375 157.449C247.28 157.244 247.231 157.023 247.231 156.801C247.231 156.578 247.28 156.358 247.375 156.153C247.469 155.948 247.607 155.762 247.781 155.608C247.955 155.453 248.161 155.332 248.387 155.252C248.613 155.172 248.854 155.134 249.096 155.142H249.348Z" fill="#663333"/>
<path fill-rule="evenodd" clip-rule="evenodd" d="M249.093 155.766H267.03C267.91 155.766 268.643 156.348 268.803 157.114C268.852 156.874 268.843 156.627 268.777 156.391C268.711 156.155 268.588 155.935 268.419 155.747C268.25 155.559 268.037 155.408 267.797 155.304C267.557 155.2 267.295 155.146 267.03 155.146H249.093C248.828 155.146 248.566 155.2 248.326 155.304C248.086 155.408 247.873 155.559 247.704 155.747C247.535 155.935 247.413 156.155 247.346 156.391C247.28 156.627 247.271 156.874 247.32 157.114C247.4 156.735 247.62 156.393 247.944 156.147C248.267 155.901 248.674 155.766 249.093 155.766Z" fill="#B08C7D" fill-opacity="0.188235"/>
</g>
<g filter="url(#filter1_d_69_1492)">
<rect x="376.26" y="146.322" width="167.279" height="134.858" rx="9.84978" fill="white" shape-rendering="crispEdges"/>
<rect x="408.765" y="168.975" width="13.7897" height="17.7296" fill="#061F25"/>
<path d="M414.674 172.694V176.45L413.347 175.99C412.678 175.754 412.271 175.53 412.271 174.388C412.271 173.455 412.967 172.694 413.82 172.694H414.674Z" fill="#D2FF98"/>
<path d="M419.048 181.296C419.048 182.228 418.352 182.99 417.498 182.99H416.645V179.234L417.971 179.694C418.641 179.93 419.048 180.153 419.048 181.296Z" fill="#D2FF98"/>
<path d="M421.161 164.709H410.156C405.375 164.709 402.525 167.559 402.525 172.339V183.345C402.525 188.125 405.375 190.975 410.156 190.975H421.161C425.942 190.975 428.791 188.125 428.791 183.345V172.339C428.791 167.559 425.942 164.709 421.161 164.709ZM418.627 177.842C419.651 178.196 421.017 178.945 421.017 181.296C421.017 183.318 419.441 184.96 417.497 184.96H416.643V185.722C416.643 186.26 416.197 186.707 415.658 186.707C415.12 186.707 414.673 186.26 414.673 185.722V184.96H414.201C412.047 184.96 410.3 183.134 410.3 180.902C410.3 180.363 410.734 179.917 411.285 179.917C411.824 179.917 412.27 180.363 412.27 180.902C412.27 182.057 413.137 182.99 414.201 182.99H414.673V178.538L412.69 177.842C411.666 177.487 410.3 176.739 410.3 174.388C410.3 172.365 411.876 170.724 413.82 170.724H414.673V169.962C414.673 169.424 415.12 168.977 415.658 168.977C416.197 168.977 416.643 169.424 416.643 169.962V170.724H417.116C419.27 170.724 421.017 172.549 421.017 174.782C421.017 175.32 420.583 175.767 420.032 175.767C419.493 175.767 419.047 175.32 419.047 174.782C419.047 173.626 418.18 172.694 417.116 172.694H416.643V177.146L418.627 177.842Z" fill="#D2FF98"/>
<path d="M404.574 216.646C403.921 216.646 403.324 216.527 402.781 216.288C402.239 216.04 401.779 215.704 401.402 215.281C401.026 214.858 400.754 214.385 400.589 213.861L401.761 213.378C402.009 214.04 402.377 214.55 402.864 214.909C403.361 215.258 403.94 215.433 404.602 215.433C405.006 215.433 405.36 215.369 405.664 215.24C405.967 215.111 406.201 214.932 406.367 214.702C406.541 214.463 406.629 214.187 406.629 213.875C406.629 213.443 406.505 213.102 406.256 212.854C406.017 212.597 405.664 212.404 405.195 212.275L403.305 211.696C402.561 211.466 401.991 211.103 401.596 210.607C401.2 210.11 401.003 209.54 401.003 208.897C401.003 208.336 401.136 207.844 401.402 207.421C401.678 206.989 402.055 206.653 402.533 206.414C403.02 206.166 403.572 206.042 404.188 206.042C404.804 206.042 405.36 206.152 405.857 206.373C406.362 206.594 406.79 206.893 407.139 207.269C407.488 207.637 407.746 208.06 407.911 208.538L406.753 209.021C406.532 208.442 406.201 208.005 405.76 207.711C405.319 207.407 404.799 207.256 404.202 207.256C403.834 207.256 403.508 207.32 403.223 207.449C402.947 207.568 402.731 207.747 402.575 207.987C402.428 208.216 402.354 208.492 402.354 208.814C402.354 209.191 402.473 209.526 402.713 209.821C402.952 210.115 403.315 210.34 403.802 210.496L405.526 211.006C406.335 211.255 406.946 211.609 407.36 212.068C407.773 212.528 407.98 213.098 407.98 213.778C407.98 214.339 407.833 214.835 407.539 215.267C407.254 215.7 406.854 216.04 406.339 216.288C405.834 216.527 405.245 216.646 404.574 216.646ZM411.784 216.646C411.297 216.646 410.865 216.559 410.488 216.384C410.12 216.201 409.83 215.952 409.619 215.64C409.407 215.318 409.302 214.95 409.302 214.537C409.302 214.141 409.384 213.787 409.55 213.475C409.725 213.153 409.991 212.882 410.35 212.661C410.717 212.441 411.177 212.284 411.729 212.192L414.487 211.737V212.813L412.018 213.227C411.54 213.309 411.191 213.461 410.97 213.682C410.759 213.902 410.653 214.173 410.653 214.495C410.653 214.799 410.773 215.051 411.012 215.254C411.26 215.456 411.568 215.557 411.936 215.557C412.404 215.557 412.809 215.461 413.149 215.267C413.498 215.065 413.77 214.794 413.963 214.454C414.165 214.114 414.266 213.737 414.266 213.323V211.434C414.266 211.029 414.114 210.703 413.811 210.455C413.517 210.197 413.126 210.069 412.639 210.069C412.216 210.069 411.839 210.179 411.508 210.4C411.186 210.611 410.947 210.896 410.791 211.255L409.674 210.675C409.812 210.335 410.033 210.032 410.336 209.765C410.639 209.49 410.993 209.274 411.398 209.117C411.802 208.961 412.225 208.883 412.666 208.883C413.236 208.883 413.737 208.993 414.169 209.214C414.602 209.425 414.937 209.724 415.176 210.11C415.424 210.487 415.548 210.928 415.548 211.434V216.481H414.294V215.074L414.528 215.157C414.372 215.451 414.16 215.709 413.894 215.929C413.627 216.15 413.315 216.325 412.956 216.453C412.597 216.582 412.207 216.646 411.784 216.646ZM419.471 216.481L416.561 209.048H417.995L420.326 215.336H419.829L422.173 209.048H423.608L420.684 216.481H419.471ZM424.755 216.481V209.048H426.037V216.481H424.755ZM424.755 207.862V206.208H426.037V207.862H424.755ZM428.027 216.481V209.048H429.282V210.496L429.075 210.372C429.259 209.903 429.553 209.54 429.958 209.283C430.372 209.016 430.854 208.883 431.406 208.883C431.939 208.883 432.412 209.002 432.826 209.241C433.249 209.48 433.58 209.811 433.819 210.234C434.067 210.657 434.191 211.135 434.191 211.668V216.481H432.895V212.082C432.895 211.668 432.821 211.319 432.674 211.034C432.527 210.749 432.316 210.528 432.04 210.372C431.773 210.207 431.466 210.124 431.116 210.124C430.767 210.124 430.454 210.207 430.178 210.372C429.912 210.528 429.7 210.754 429.544 211.048C429.388 211.333 429.31 211.678 429.31 212.082V216.481H428.027ZM439.57 219.515C439.046 219.515 438.559 219.432 438.109 219.266C437.667 219.101 437.286 218.871 436.964 218.577C436.652 218.292 436.412 217.956 436.247 217.57L437.447 217.019C437.575 217.368 437.819 217.662 438.178 217.901C438.545 218.15 439.005 218.274 439.557 218.274C439.979 218.274 440.361 218.191 440.701 218.025C441.05 217.869 441.326 217.63 441.528 217.308C441.731 216.996 441.832 216.614 441.832 216.164V214.495L442.066 214.743C441.809 215.249 441.437 215.635 440.949 215.902C440.471 216.168 439.943 216.302 439.363 216.302C438.665 216.302 438.04 216.141 437.488 215.819C436.936 215.488 436.504 215.042 436.192 214.481C435.879 213.911 435.723 213.282 435.723 212.592C435.723 211.894 435.879 211.264 436.192 210.703C436.504 210.142 436.932 209.701 437.474 209.379C438.026 209.048 438.651 208.883 439.35 208.883C439.929 208.883 440.453 209.016 440.922 209.283C441.4 209.54 441.781 209.899 442.066 210.358L441.873 210.703V209.048H443.128V216.164C443.128 216.807 442.976 217.382 442.673 217.888C442.37 218.393 441.947 218.788 441.404 219.073C440.871 219.368 440.26 219.515 439.57 219.515ZM439.474 215.061C439.915 215.061 440.31 214.95 440.66 214.73C441.018 214.509 441.303 214.215 441.515 213.847C441.726 213.47 441.832 213.052 441.832 212.592C441.832 212.142 441.726 211.728 441.515 211.351C441.303 210.974 441.018 210.675 440.66 210.455C440.31 210.234 439.915 210.124 439.474 210.124C439.023 210.124 438.614 210.234 438.247 210.455C437.879 210.675 437.589 210.974 437.378 211.351C437.176 211.719 437.074 212.133 437.074 212.592C437.074 213.052 437.176 213.47 437.378 213.847C437.589 214.215 437.874 214.509 438.233 214.73C438.6 214.95 439.014 215.061 439.474 215.061ZM447.778 216.646C447.033 216.646 446.385 216.463 445.833 216.095C445.282 215.727 444.891 215.231 444.661 214.606L445.682 214.109C445.893 214.55 446.183 214.9 446.55 215.157C446.918 215.415 447.327 215.543 447.778 215.543C448.182 215.543 448.518 215.447 448.784 215.254C449.051 215.061 449.184 214.808 449.184 214.495C449.184 214.275 449.12 214.1 448.991 213.971C448.872 213.833 448.725 213.728 448.55 213.654C448.375 213.571 448.214 213.512 448.067 213.475L446.95 213.158C446.279 212.965 445.787 212.689 445.475 212.33C445.171 211.972 445.02 211.553 445.02 211.075C445.02 210.634 445.13 210.253 445.351 209.931C445.581 209.6 445.888 209.342 446.275 209.159C446.67 208.975 447.111 208.883 447.598 208.883C448.251 208.883 448.835 209.048 449.35 209.379C449.874 209.71 450.246 210.174 450.467 210.772L449.419 211.255C449.253 210.869 449.005 210.565 448.674 210.345C448.343 210.115 447.971 210 447.557 210C447.18 210 446.881 210.096 446.661 210.289C446.44 210.473 446.33 210.708 446.33 210.993C446.33 211.204 446.385 211.379 446.495 211.517C446.606 211.645 446.739 211.746 446.895 211.82C447.051 211.884 447.203 211.94 447.35 211.986L448.564 212.344C449.17 212.519 449.639 212.79 449.97 213.158C450.31 213.525 450.48 213.967 450.48 214.481C450.48 214.895 450.366 215.267 450.136 215.598C449.906 215.929 449.589 216.187 449.184 216.371C448.78 216.555 448.311 216.646 447.778 216.646ZM454.543 216.481V209.048H455.798V210.565L455.618 210.331C455.802 209.862 456.096 209.503 456.501 209.255C456.905 209.007 457.361 208.883 457.866 208.883C458.445 208.883 458.965 209.044 459.424 209.365C459.893 209.687 460.215 210.11 460.39 210.634L460.031 210.648C460.224 210.069 460.551 209.632 461.01 209.338C461.47 209.035 461.98 208.883 462.541 208.883C463.056 208.883 463.52 209.002 463.934 209.241C464.356 209.48 464.692 209.811 464.94 210.234C465.188 210.657 465.313 211.135 465.313 211.668V216.481H464.016V212.082C464.016 211.668 463.943 211.319 463.796 211.034C463.649 210.749 463.446 210.528 463.189 210.372C462.941 210.207 462.647 210.124 462.306 210.124C461.975 210.124 461.677 210.207 461.41 210.372C461.153 210.528 460.946 210.754 460.79 211.048C460.642 211.333 460.569 211.678 460.569 212.082V216.481H459.273V212.082C459.273 211.668 459.199 211.319 459.052 211.034C458.905 210.749 458.703 210.528 458.445 210.372C458.197 210.207 457.903 210.124 457.563 210.124C457.232 210.124 456.933 210.207 456.666 210.372C456.409 210.528 456.202 210.754 456.046 211.048C455.899 211.333 455.825 211.678 455.825 212.082V216.481H454.543ZM470.664 216.646C469.947 216.646 469.299 216.481 468.72 216.15C468.141 215.81 467.681 215.346 467.341 214.757C467.001 214.169 466.831 213.502 466.831 212.758C466.831 212.013 466.996 211.351 467.327 210.772C467.667 210.193 468.127 209.733 468.706 209.393C469.285 209.053 469.938 208.883 470.664 208.883C471.381 208.883 472.029 209.053 472.609 209.393C473.188 209.724 473.643 210.179 473.974 210.758C474.314 211.337 474.484 212.004 474.484 212.758C474.484 213.512 474.309 214.183 473.96 214.771C473.611 215.35 473.146 215.81 472.567 216.15C471.997 216.481 471.363 216.646 470.664 216.646ZM470.664 215.405C471.124 215.405 471.538 215.29 471.905 215.061C472.282 214.831 472.576 214.514 472.788 214.109C473.008 213.705 473.119 213.254 473.119 212.758C473.119 212.252 473.008 211.806 472.788 211.42C472.576 211.025 472.282 210.712 471.905 210.482C471.538 210.243 471.124 210.124 470.664 210.124C470.195 210.124 469.772 210.243 469.396 210.482C469.028 210.712 468.734 211.025 468.513 211.42C468.292 211.806 468.182 212.252 468.182 212.758C468.182 213.254 468.292 213.705 468.513 214.109C468.734 214.514 469.028 214.831 469.396 215.061C469.772 215.29 470.195 215.405 470.664 215.405ZM476.157 216.481V209.048H477.411V210.496L477.205 210.372C477.388 209.903 477.683 209.54 478.087 209.283C478.501 209.016 478.983 208.883 479.535 208.883C480.068 208.883 480.542 209.002 480.955 209.241C481.378 209.48 481.709 209.811 481.948 210.234C482.196 210.657 482.321 211.135 482.321 211.668V216.481H481.024V212.082C481.024 211.668 480.951 211.319 480.804 211.034C480.657 210.749 480.445 210.528 480.169 210.372C479.903 210.207 479.595 210.124 479.245 210.124C478.896 210.124 478.584 210.207 478.308 210.372C478.041 210.528 477.83 210.754 477.673 211.048C477.517 211.333 477.439 211.678 477.439 212.082V216.481H476.157ZM487.575 216.646C486.858 216.646 486.22 216.476 485.659 216.136C485.098 215.796 484.657 215.332 484.335 214.743C484.013 214.146 483.852 213.479 483.852 212.744C483.852 211.999 484.009 211.337 484.321 210.758C484.643 210.179 485.075 209.724 485.617 209.393C486.169 209.053 486.785 208.883 487.465 208.883C488.017 208.883 488.504 208.984 488.927 209.186C489.359 209.379 489.722 209.646 490.016 209.986C490.32 210.317 490.549 210.698 490.706 211.131C490.871 211.553 490.954 211.995 490.954 212.454C490.954 212.555 490.945 212.67 490.926 212.799C490.917 212.919 490.903 213.034 490.885 213.144H484.79V212.041H490.14L489.534 212.537C489.616 212.059 489.57 211.632 489.396 211.255C489.221 210.878 488.964 210.579 488.624 210.358C488.283 210.138 487.897 210.027 487.465 210.027C487.033 210.027 486.638 210.138 486.279 210.358C485.921 210.579 485.64 210.896 485.438 211.31C485.245 211.714 485.167 212.197 485.204 212.758C485.167 213.3 485.25 213.778 485.452 214.192C485.663 214.596 485.958 214.914 486.334 215.143C486.721 215.364 487.139 215.474 487.589 215.474C488.086 215.474 488.504 215.359 488.844 215.13C489.184 214.9 489.46 214.606 489.672 214.247L490.747 214.799C490.6 215.139 490.37 215.451 490.058 215.736C489.754 216.012 489.391 216.233 488.968 216.398C488.555 216.564 488.09 216.646 487.575 216.646ZM493.026 219.515C492.861 219.515 492.695 219.501 492.53 219.473C492.364 219.446 492.208 219.4 492.061 219.335V218.191C492.162 218.209 492.286 218.228 492.433 218.246C492.589 218.274 492.741 218.287 492.888 218.287C493.32 218.287 493.647 218.191 493.867 217.998C494.097 217.814 494.313 217.492 494.515 217.033L494.984 215.916L494.957 217.033L491.785 209.048H493.178L495.646 215.392H495.232L497.687 209.048H499.107L495.756 217.363C495.6 217.759 495.398 218.117 495.15 218.439C494.911 218.77 494.616 219.032 494.267 219.225C493.918 219.418 493.504 219.515 493.026 219.515Z" fill="#767676"/>
<path d="M408.252 252.67V248.037H403.587V245.105H408.252V240.441H411.183V245.105H415.817V248.037H411.183V252.67H408.252ZM429.939 256.736C428.195 256.736 426.703 256.4 425.463 255.727C424.223 255.055 423.278 254.162 422.626 253.048C421.975 251.935 421.649 250.705 421.649 249.361H425.116C425.116 250.663 425.568 251.704 426.472 252.481C427.375 253.258 428.531 253.647 429.939 253.647C430.779 253.647 431.546 253.49 432.24 253.174C432.954 252.859 433.521 252.397 433.942 251.788C434.362 251.178 434.572 250.443 434.572 249.581C434.572 248.468 434.194 247.574 433.437 246.902C432.681 246.23 431.651 245.893 430.349 245.893H427.197V243.025H430.349C431.441 243.025 432.355 242.71 433.091 242.08C433.847 241.428 434.225 240.588 434.225 239.558C434.225 238.802 434.026 238.15 433.627 237.604C433.248 237.037 432.734 236.606 432.082 236.312C431.431 235.996 430.716 235.839 429.939 235.839C428.678 235.839 427.617 236.249 426.755 237.068C425.915 237.867 425.495 238.907 425.495 240.188H422.09C422.09 238.865 422.406 237.646 423.036 236.532C423.666 235.398 424.57 234.494 425.747 233.822C426.944 233.128 428.363 232.781 430.002 232.781C431.326 232.781 432.576 233.044 433.753 233.569C434.95 234.074 435.917 234.809 436.652 235.776C437.409 236.742 437.787 237.898 437.787 239.243C437.787 240.546 437.44 241.628 436.747 242.489C436.075 243.351 435.276 243.96 434.351 244.317V244.475C435.444 244.853 436.358 245.484 437.094 246.366C437.85 247.249 438.228 248.373 438.228 249.739C438.228 251.21 437.84 252.47 437.062 253.521C436.306 254.551 435.297 255.349 434.036 255.917C432.776 256.463 431.41 256.736 429.939 256.736ZM450.71 256.736C449.092 256.736 447.652 256.452 446.392 255.885C445.152 255.297 444.175 254.498 443.46 253.49C442.746 252.481 442.389 251.315 442.389 249.991C442.389 248.856 442.588 247.921 442.988 247.186C443.408 246.429 443.881 245.841 444.406 245.421C444.952 244.979 445.425 244.664 445.824 244.475C446.245 244.286 446.455 244.191 446.455 244.191V244.002C446.455 244.002 446.276 243.929 445.919 243.782C445.562 243.614 445.152 243.34 444.69 242.962C444.248 242.584 443.849 242.08 443.492 241.449C443.156 240.819 442.988 240.041 442.988 239.117C442.988 237.877 443.313 236.784 443.965 235.839C444.616 234.893 445.52 234.147 446.675 233.601C447.852 233.055 449.197 232.781 450.71 232.781C452.244 232.781 453.589 233.055 454.744 233.601C455.921 234.147 456.835 234.893 457.486 235.839C458.138 236.784 458.464 237.867 458.464 239.085C458.464 240.031 458.285 240.819 457.928 241.449C457.591 242.08 457.192 242.584 456.73 242.962C456.268 243.34 455.858 243.614 455.501 243.782C455.165 243.929 454.996 244.002 454.996 244.002V244.191C454.996 244.191 455.196 244.286 455.595 244.475C456.016 244.664 456.488 244.979 457.014 245.421C457.56 245.841 458.033 246.429 458.432 247.186C458.852 247.921 459.062 248.856 459.062 249.991C459.062 251.315 458.705 252.481 457.991 253.49C457.276 254.498 456.289 255.297 455.028 255.885C453.788 256.452 452.349 256.736 450.71 256.736ZM450.71 242.773C452.076 242.773 453.126 242.416 453.862 241.701C454.597 240.966 454.965 240.146 454.965 239.243C454.965 238.297 454.597 237.467 453.862 236.753C453.126 236.017 452.076 235.65 450.71 235.65C449.365 235.65 448.325 236.017 447.589 236.753C446.854 237.467 446.486 238.297 446.486 239.243C446.486 240.146 446.854 240.966 447.589 241.701C448.325 242.416 449.365 242.773 450.71 242.773ZM450.71 253.805C451.781 253.805 452.674 253.605 453.389 253.206C454.103 252.786 454.639 252.26 454.996 251.63C455.375 250.979 455.564 250.306 455.564 249.613C455.564 248.94 455.385 248.299 455.028 247.69C454.671 247.06 454.135 246.545 453.42 246.146C452.706 245.746 451.802 245.547 450.71 245.547C449.638 245.547 448.745 245.746 448.031 246.146C447.316 246.545 446.78 247.06 446.423 247.69C446.066 248.299 445.887 248.94 445.887 249.613C445.887 250.306 446.066 250.979 446.423 251.63C446.801 252.26 447.348 252.786 448.062 253.206C448.777 253.605 449.659 253.805 450.71 253.805ZM463.397 260.518L465.793 256.642C465.204 256.6 464.711 256.379 464.311 255.98C463.933 255.559 463.744 255.045 463.744 254.435C463.744 253.763 463.965 253.227 464.406 252.828C464.868 252.407 465.415 252.197 466.045 252.197C466.696 252.197 467.243 252.407 467.684 252.828C468.146 253.227 468.377 253.784 468.377 254.498C468.377 255.15 468.136 255.885 467.652 256.705C467.19 257.524 466.413 258.69 465.32 260.203L465.099 260.518H463.397ZM481.312 232.781C482.867 232.781 484.202 233.065 485.315 233.632C486.45 234.2 487.385 234.988 488.12 235.996C488.856 236.984 489.402 238.119 489.759 239.4C490.138 240.682 490.327 242.027 490.327 243.435C490.327 244.612 490.19 245.82 489.917 247.06C489.644 248.299 489.224 249.497 488.656 250.653C488.089 251.809 487.343 252.849 486.418 253.773C485.494 254.677 484.37 255.402 483.046 255.948C481.743 256.473 480.22 256.736 478.476 256.736C477.509 256.736 476.668 256.663 475.954 256.515C475.24 256.368 474.882 256.295 474.882 256.295V252.985C474.882 252.985 475.061 253.017 475.418 253.08C475.796 253.143 476.269 253.216 476.837 253.3C477.404 253.364 477.971 253.395 478.539 253.395C480.01 253.395 481.239 253.132 482.226 252.607C483.235 252.082 484.044 251.42 484.653 250.621C485.263 249.802 485.715 248.951 486.009 248.068C486.303 247.186 486.471 246.377 486.513 245.641C486.324 245.935 486.009 246.303 485.567 246.744C485.147 247.186 484.538 247.585 483.739 247.942C482.962 248.278 481.974 248.447 480.776 248.447C479.074 248.447 477.646 248.079 476.49 247.343C475.355 246.587 474.504 245.631 473.937 244.475C473.369 243.298 473.086 242.069 473.086 240.787C473.086 239.779 473.254 238.802 473.59 237.856C473.947 236.91 474.462 236.059 475.135 235.303C475.828 234.525 476.689 233.916 477.719 233.475C478.749 233.013 479.946 232.781 481.312 232.781ZM481.375 235.87C480.556 235.87 479.778 236.059 479.043 236.438C478.328 236.795 477.751 237.331 477.309 238.045C476.868 238.76 476.647 239.632 476.647 240.661C476.647 241.691 476.868 242.563 477.309 243.277C477.751 243.992 478.328 244.538 479.043 244.916C479.778 245.274 480.556 245.452 481.375 245.452C482.195 245.452 482.962 245.274 483.676 244.916C484.391 244.538 484.969 243.992 485.41 243.277C485.851 242.563 486.072 241.691 486.072 240.661C486.072 239.632 485.851 238.76 485.41 238.045C484.969 237.331 484.391 236.795 483.676 236.438C482.962 236.059 482.195 235.87 481.375 235.87ZM499.326 242.647C498.381 242.647 497.53 242.437 496.773 242.017C496.017 241.596 495.418 241.018 494.977 240.283C494.535 239.527 494.315 238.655 494.315 237.667C494.315 236.7 494.535 235.849 494.977 235.114C495.418 234.378 496.017 233.811 496.773 233.412C497.53 232.992 498.381 232.781 499.326 232.781C500.293 232.781 501.154 232.992 501.911 233.412C502.667 233.811 503.266 234.378 503.708 235.114C504.149 235.849 504.369 236.7 504.369 237.667C504.369 238.655 504.149 239.527 503.708 240.283C503.266 241.018 502.667 241.596 501.911 242.017C501.154 242.437 500.293 242.647 499.326 242.647ZM498.129 256.421L510.673 233.097H513.888L501.344 256.421H498.129ZM499.326 240.188C499.999 240.188 500.566 239.968 501.028 239.527C501.491 239.064 501.722 238.455 501.722 237.698C501.722 236.942 501.491 236.343 501.028 235.902C500.566 235.461 499.999 235.24 499.326 235.24C498.675 235.24 498.108 235.461 497.624 235.902C497.162 236.343 496.931 236.942 496.931 237.698C496.931 238.455 497.162 239.064 497.624 239.527C498.108 239.968 498.675 240.188 499.326 240.188ZM512.691 256.736C511.745 256.736 510.883 256.536 510.106 256.137C509.349 255.717 508.751 255.139 508.309 254.404C507.889 253.647 507.679 252.786 507.679 251.819C507.679 250.831 507.889 249.97 508.309 249.234C508.751 248.499 509.349 247.921 510.106 247.501C510.883 247.081 511.745 246.871 512.691 246.871C513.636 246.871 514.487 247.081 515.244 247.501C516 247.921 516.599 248.499 517.04 249.234C517.481 249.97 517.702 250.831 517.702 251.819C517.702 252.786 517.481 253.637 517.04 254.372C516.62 255.108 516.032 255.685 515.275 256.106C514.519 256.526 513.657 256.736 512.691 256.736ZM512.691 254.309C513.342 254.309 513.899 254.088 514.361 253.647C514.844 253.185 515.086 252.576 515.086 251.819C515.086 251.063 514.844 250.464 514.361 250.022C513.899 249.56 513.342 249.329 512.691 249.329C512.018 249.329 511.451 249.56 510.988 250.022C510.526 250.464 510.295 251.063 510.295 251.819C510.295 252.576 510.526 253.185 510.988 253.647C511.451 254.088 512.018 254.309 512.691 254.309Z" fill="#061F25"/>
</g>
<g filter="url(#filter2_d_69_1492)">
<rect x="171.384" y="342.291" width="378.232" height="131.987" rx="9.84978" fill="white" shape-rendering="crispEdges"/>
<rect x="170.891" y="341.799" width="379.217" height="132.972" rx="10.3423" stroke="#D6D6D6" stroke-width="0.984978" shape-rendering="crispEdges"/>
<path d="M198.729 386.72V375.373H195.218V373.512H204.261V375.373H200.803V386.72H198.729ZM209.011 386.933C208.089 386.933 207.244 386.714 206.475 386.277C205.719 385.84 205.116 385.243 204.667 384.486C204.218 383.73 203.993 382.873 203.993 381.915C203.993 380.946 204.218 380.089 204.667 379.345C205.116 378.588 205.719 377.997 206.475 377.572C207.232 377.134 208.077 376.916 209.011 376.916C209.956 376.916 210.801 377.134 211.546 377.572C212.302 377.997 212.899 378.588 213.337 379.345C213.786 380.089 214.01 380.946 214.01 381.915C214.01 382.885 213.786 383.748 213.337 384.504C212.887 385.26 212.285 385.857 211.528 386.295C210.772 386.72 209.933 386.933 209.011 386.933ZM209.011 385.071C209.578 385.071 210.08 384.935 210.518 384.664C210.955 384.392 211.298 384.019 211.546 383.547C211.806 383.062 211.936 382.518 211.936 381.915C211.936 381.313 211.806 380.775 211.546 380.302C211.298 379.829 210.955 379.457 210.518 379.185C210.08 378.913 209.578 378.777 209.011 378.777C208.455 378.777 207.953 378.913 207.504 379.185C207.066 379.457 206.718 379.829 206.458 380.302C206.209 380.775 206.085 381.313 206.085 381.915C206.085 382.518 206.209 383.062 206.458 383.547C206.718 384.019 207.066 384.392 207.504 384.664C207.953 384.935 208.455 385.071 209.011 385.071ZM219.942 386.827C218.937 386.827 218.157 386.543 217.602 385.976C217.046 385.408 216.768 384.61 216.768 383.582V378.937H215.084V377.128H215.35C215.799 377.128 216.148 376.998 216.396 376.738C216.644 376.478 216.768 376.124 216.768 375.675V374.93H218.772V377.128H220.952V378.937H218.772V383.493C218.772 383.824 218.825 384.108 218.931 384.344C219.038 384.569 219.209 384.746 219.445 384.876C219.682 384.995 219.989 385.054 220.367 385.054C220.462 385.054 220.568 385.048 220.686 385.036C220.805 385.024 220.917 385.012 221.023 385V386.72C220.858 386.744 220.675 386.767 220.474 386.791C220.273 386.815 220.096 386.827 219.942 386.827ZM225.764 386.933C225.114 386.933 224.541 386.821 224.044 386.596C223.56 386.36 223.181 386.041 222.91 385.639C222.638 385.225 222.502 384.74 222.502 384.185C222.502 383.665 222.614 383.198 222.839 382.784C223.075 382.371 223.436 382.022 223.92 381.738C224.405 381.455 225.014 381.254 225.746 381.135L229.08 380.586V382.164L226.136 382.678C225.605 382.772 225.214 382.944 224.966 383.192C224.718 383.428 224.594 383.736 224.594 384.114C224.594 384.48 224.73 384.782 225.002 385.018C225.285 385.243 225.646 385.355 226.083 385.355C226.627 385.355 227.1 385.237 227.502 385C227.915 384.764 228.234 384.451 228.459 384.061C228.684 383.659 228.796 383.216 228.796 382.731V380.267C228.796 379.794 228.619 379.41 228.264 379.114C227.921 378.807 227.46 378.653 226.881 378.653C226.349 378.653 225.882 378.795 225.48 379.079C225.09 379.351 224.801 379.705 224.612 380.143L222.945 379.309C223.122 378.836 223.412 378.423 223.814 378.068C224.216 377.702 224.683 377.418 225.214 377.217C225.758 377.016 226.331 376.916 226.934 376.916C227.691 376.916 228.359 377.058 228.938 377.341C229.529 377.625 229.984 378.021 230.303 378.529C230.634 379.026 230.799 379.605 230.799 380.267V386.72H228.885V384.983L229.292 385.036C229.068 385.426 228.778 385.763 228.424 386.046C228.081 386.33 227.685 386.549 227.236 386.702C226.798 386.856 226.308 386.933 225.764 386.933ZM233.142 386.72V373.299H235.145V386.72H233.142ZM240.782 386.72V373.512H249.487V375.373H242.874V379.167H249.133V381.029H242.874V384.859H249.487V386.72H240.782ZM254.107 386.933C253.457 386.933 252.884 386.821 252.387 386.596C251.903 386.36 251.525 386.041 251.253 385.639C250.981 385.225 250.845 384.74 250.845 384.185C250.845 383.665 250.957 383.198 251.182 382.784C251.418 382.371 251.779 382.022 252.263 381.738C252.748 381.455 253.357 381.254 254.09 381.135L257.423 380.586V382.164L254.48 382.678C253.948 382.772 253.558 382.944 253.309 383.192C253.061 383.428 252.937 383.736 252.937 384.114C252.937 384.48 253.073 384.782 253.345 385.018C253.629 385.243 253.989 385.355 254.426 385.355C254.97 385.355 255.443 385.237 255.845 385C256.258 384.764 256.578 384.451 256.802 384.061C257.027 383.659 257.139 383.216 257.139 382.731V380.267C257.139 379.794 256.962 379.41 256.607 379.114C256.264 378.807 255.803 378.653 255.224 378.653C254.692 378.653 254.225 378.795 253.824 379.079C253.434 379.351 253.144 379.705 252.955 380.143L251.288 379.309C251.466 378.836 251.755 378.423 252.157 378.068C252.559 377.702 253.026 377.418 253.558 377.217C254.101 377.016 254.675 376.916 255.277 376.916C256.034 376.916 256.702 377.058 257.281 377.341C257.872 377.625 258.327 378.021 258.646 378.529C258.977 379.026 259.142 379.605 259.142 380.267V386.72H257.228V384.983L257.635 385.036C257.411 385.426 257.121 385.763 256.767 386.046C256.424 386.33 256.028 386.549 255.579 386.702C255.141 386.856 254.651 386.933 254.107 386.933ZM261.485 386.72V377.128H263.4V379.061L263.222 378.777C263.435 378.151 263.778 377.702 264.251 377.43C264.724 377.146 265.291 377.004 265.953 377.004H266.538V378.831H265.705C265.043 378.831 264.505 379.037 264.091 379.451C263.689 379.853 263.488 380.432 263.488 381.189V386.72H261.485ZM267.908 386.72V377.128H269.823V379.008L269.593 378.76C269.829 378.157 270.207 377.702 270.727 377.394C271.248 377.075 271.85 376.916 272.536 376.916C273.245 376.916 273.872 377.069 274.415 377.377C274.959 377.684 275.384 378.11 275.692 378.653C275.999 379.197 276.153 379.823 276.153 380.533V386.72H274.167V381.064C274.167 380.58 274.078 380.172 273.901 379.841C273.724 379.498 273.47 379.238 273.139 379.061C272.82 378.872 272.453 378.777 272.039 378.777C271.626 378.777 271.253 378.872 270.923 379.061C270.603 379.238 270.355 379.498 270.178 379.841C270.001 380.184 269.912 380.592 269.912 381.064V386.72H267.908ZM278.297 386.72V377.128H280.3V386.72H278.297ZM278.297 375.817V373.512H280.3V375.817H278.297ZM282.643 386.72V377.128H284.558V379.008L284.327 378.76C284.563 378.157 284.942 377.702 285.462 377.394C285.982 377.075 286.585 376.916 287.27 376.916C287.979 376.916 288.606 377.069 289.15 377.377C289.693 377.684 290.119 378.11 290.426 378.653C290.733 379.197 290.887 379.823 290.887 380.533V386.72H288.901V381.064C288.901 380.58 288.813 380.172 288.635 379.841C288.458 379.498 288.204 379.238 287.873 379.061C287.554 378.872 287.187 378.777 286.774 378.777C286.36 378.777 285.988 378.872 285.657 379.061C285.338 379.238 285.089 379.498 284.912 379.841C284.735 380.184 284.646 380.592 284.646 381.064V386.72H282.643ZM297.659 390.621C296.961 390.621 296.317 390.508 295.726 390.284C295.135 390.059 294.627 389.746 294.201 389.344C293.776 388.954 293.457 388.493 293.244 387.961L295.088 387.199C295.253 387.648 295.555 388.02 295.992 388.316C296.441 388.611 296.991 388.759 297.641 388.759C298.149 388.759 298.604 388.659 299.006 388.458C299.408 388.269 299.727 387.985 299.963 387.607C300.2 387.24 300.318 386.797 300.318 386.277V384.114L300.673 384.522C300.342 385.136 299.881 385.603 299.29 385.922C298.711 386.242 298.055 386.401 297.322 386.401C296.435 386.401 295.637 386.194 294.928 385.781C294.219 385.367 293.658 384.8 293.244 384.079C292.842 383.357 292.641 382.548 292.641 381.65C292.641 380.739 292.842 379.93 293.244 379.221C293.658 378.511 294.213 377.95 294.911 377.536C295.608 377.123 296.406 376.916 297.304 376.916C298.037 376.916 298.687 377.075 299.254 377.394C299.833 377.702 300.306 378.151 300.673 378.742L300.407 379.238V377.128H302.304V386.277C302.304 387.104 302.103 387.843 301.701 388.493C301.311 389.155 300.767 389.675 300.07 390.053C299.372 390.432 298.569 390.621 297.659 390.621ZM297.552 384.539C298.084 384.539 298.557 384.415 298.971 384.167C299.384 383.907 299.709 383.564 299.946 383.139C300.194 382.702 300.318 382.211 300.318 381.667C300.318 381.124 300.194 380.633 299.946 380.196C299.698 379.758 299.367 379.416 298.953 379.167C298.539 378.907 298.072 378.777 297.552 378.777C297.009 378.777 296.524 378.907 296.098 379.167C295.673 379.416 295.336 379.758 295.088 380.196C294.851 380.621 294.733 381.112 294.733 381.667C294.733 382.199 294.851 382.684 295.088 383.121C295.336 383.558 295.673 383.907 296.098 384.167C296.524 384.415 297.009 384.539 297.552 384.539Z" fill="#181E2F"/>
<path d="M521.345 367.941H517.967C516.507 367.941 515.634 368.815 515.634 370.274V373.653C515.634 375.112 516.507 375.985 517.967 375.985H521.345C522.804 375.985 523.678 375.112 523.678 373.653V370.274C523.678 368.815 522.804 367.941 521.345 367.941ZM521.598 371.745C521.46 371.883 521.276 371.952 521.092 371.952C520.908 371.952 520.724 371.883 520.587 371.745L520.38 371.538V374.112C520.38 374.514 520.058 374.836 519.656 374.836C519.254 374.836 518.932 374.514 518.932 374.112V371.538L518.725 371.745C518.449 372.021 517.99 372.021 517.714 371.745C517.438 371.469 517.438 371.01 517.714 370.734L519.15 369.297C519.208 369.24 519.288 369.194 519.368 369.159C519.391 369.148 519.414 369.148 519.437 369.137C519.495 369.114 519.552 369.102 519.621 369.102C519.644 369.102 519.667 369.102 519.69 369.102C519.771 369.102 519.84 369.114 519.92 369.148C519.932 369.148 519.932 369.148 519.943 369.148C520.024 369.182 520.092 369.228 520.15 369.286C520.161 369.297 520.161 369.297 520.173 369.297L521.609 370.734C521.885 371.01 521.885 371.469 521.598 371.745Z" fill="#061F25"/>
<path d="M500.695 379.099V384.845C500.695 387.477 502.821 389.603 505.453 389.603H518.909C521.541 389.603 523.678 387.465 523.678 384.834V379.099C523.678 378.33 523.058 377.709 522.288 377.709H502.086C501.316 377.709 500.695 378.33 500.695 379.099ZM507.59 385.753H505.292C504.821 385.753 504.43 385.362 504.43 384.891C504.43 384.42 504.821 384.029 505.292 384.029H507.59C508.061 384.029 508.452 384.42 508.452 384.891C508.452 385.362 508.061 385.753 507.59 385.753ZM515.06 385.753H510.463C509.992 385.753 509.601 385.362 509.601 384.891C509.601 384.42 509.992 384.029 510.463 384.029H515.06C515.531 384.029 515.921 384.42 515.921 384.891C515.921 385.362 515.531 385.753 515.06 385.753Z" fill="#061F25"/>
<path d="M513.91 371.228V374.595C513.91 375.365 513.29 375.985 512.52 375.985H502.086C501.304 375.985 500.695 375.342 500.695 374.572C500.707 373.273 501.224 372.09 502.086 371.228C502.948 370.366 504.143 369.837 505.453 369.837H512.52C513.29 369.837 513.91 370.458 513.91 371.228Z" fill="#061F25"/>
<path d="M204.29 444.39V441.553C202.735 441.427 201.464 441.091 200.476 440.545C199.51 439.998 198.753 439.357 198.207 438.622C197.661 437.886 197.272 437.172 197.041 436.479C196.831 435.764 196.694 435.176 196.631 434.714C196.589 434.23 196.568 433.989 196.568 433.989H200.193C200.193 433.989 200.214 434.188 200.256 434.587C200.319 434.966 200.466 435.428 200.697 435.974C200.949 436.521 201.359 437.035 201.926 437.519C202.494 437.981 203.281 438.296 204.29 438.464V430.805L204.133 430.774C202.851 430.479 201.685 430.091 200.634 429.607C199.604 429.124 198.774 428.462 198.144 427.622C197.534 426.76 197.23 425.657 197.23 424.312C197.23 422.988 197.555 421.854 198.207 420.908C198.858 419.962 199.72 419.217 200.791 418.67C201.863 418.124 203.029 417.788 204.29 417.662V414.888H206.78V417.725C208.125 417.893 209.228 418.229 210.09 418.733C210.951 419.238 211.624 419.815 212.107 420.467C212.611 421.118 212.979 421.759 213.21 422.389C213.441 422.999 213.588 423.514 213.651 423.934C213.714 424.333 213.746 424.533 213.746 424.533H210.153C210.153 424.533 210.121 424.375 210.058 424.06C210.016 423.745 209.89 423.367 209.68 422.925C209.47 422.484 209.134 422.064 208.671 421.665C208.209 421.265 207.579 420.961 206.78 420.75V427.968L207.064 428.031C207.862 428.221 208.671 428.452 209.491 428.725C210.31 428.998 211.056 429.376 211.729 429.86C212.422 430.322 212.979 430.942 213.399 431.719C213.819 432.476 214.03 433.453 214.03 434.65C214.03 435.89 213.714 437.004 213.084 437.992C212.475 438.979 211.624 439.788 210.531 440.419C209.438 441.028 208.188 441.406 206.78 441.553V444.39H204.29ZM200.76 424.218C200.76 425.037 201.044 425.699 201.611 426.203C202.178 426.687 203.071 427.086 204.29 427.401V420.656C203.197 420.824 202.336 421.244 201.706 421.917C201.075 422.568 200.76 423.335 200.76 424.218ZM210.468 434.682C210.468 433.715 210.142 432.99 209.491 432.507C208.839 432.024 207.936 431.635 206.78 431.341V438.464C207.852 438.275 208.734 437.844 209.428 437.172C210.121 436.5 210.468 435.67 210.468 434.682ZM217.701 441.27V438.716L222.461 434.398C223.973 433.053 225.287 431.887 226.4 430.9C227.514 429.891 228.376 428.935 228.985 428.031C229.615 427.107 229.931 426.098 229.931 425.006C229.931 424.144 229.72 423.409 229.3 422.799C228.88 422.19 228.344 421.728 227.693 421.412C227.041 421.076 226.358 420.908 225.644 420.908C224.782 420.908 224.068 421.055 223.501 421.349C222.954 421.622 222.513 421.98 222.177 422.421C221.862 422.841 221.63 423.283 221.483 423.745C221.336 424.186 221.242 424.585 221.2 424.943C221.158 425.279 221.137 425.489 221.137 425.573H217.607C217.607 425.342 217.649 424.922 217.733 424.312C217.838 423.703 218.037 423.03 218.331 422.295C218.647 421.538 219.098 420.803 219.687 420.089C220.296 419.374 221.084 418.786 222.051 418.323C223.038 417.861 224.268 417.63 225.739 417.63C227.146 417.63 228.449 417.914 229.647 418.481C230.845 419.048 231.801 419.878 232.515 420.971C233.251 422.043 233.618 423.346 233.618 424.879C233.618 426.287 233.261 427.569 232.547 428.725C231.853 429.86 230.908 430.984 229.71 432.097C228.533 433.19 227.22 434.367 225.77 435.628L223.154 437.992H234.06V441.27H217.701ZM238.355 441.27V438.716L243.114 434.398C244.627 433.053 245.941 431.887 247.054 430.9C248.168 429.891 249.029 428.935 249.639 428.031C250.269 427.107 250.584 426.098 250.584 425.006C250.584 424.144 250.374 423.409 249.954 422.799C249.534 422.19 248.998 421.728 248.346 421.412C247.695 421.076 247.012 420.908 246.298 420.908C245.436 420.908 244.722 421.055 244.154 421.349C243.608 421.622 243.167 421.98 242.831 422.421C242.515 422.841 242.284 423.283 242.137 423.745C241.99 424.186 241.896 424.585 241.854 424.943C241.811 425.279 241.79 425.489 241.79 425.573H238.26C238.26 425.342 238.302 424.922 238.386 424.312C238.491 423.703 238.691 423.03 238.985 422.295C239.3 421.538 239.752 420.803 240.341 420.089C240.95 419.374 241.738 418.786 242.705 418.323C243.692 417.861 244.921 417.63 246.392 417.63C247.8 417.63 249.103 417.914 250.301 418.481C251.498 419.048 252.454 419.878 253.169 420.971C253.904 422.043 254.272 423.346 254.272 424.879C254.272 426.287 253.915 427.569 253.2 428.725C252.507 429.86 251.561 430.984 250.364 432.097C249.187 433.19 247.874 434.367 246.424 435.628L243.808 437.992H254.713V441.27H238.355ZM261.467 441.585C260.816 441.585 260.269 441.364 259.828 440.923C259.408 440.461 259.198 439.925 259.198 439.315C259.198 438.685 259.408 438.149 259.828 437.708C260.269 437.267 260.816 437.046 261.467 437.046C262.119 437.046 262.654 437.267 263.075 437.708C263.516 438.149 263.737 438.685 263.737 439.315C263.737 439.946 263.516 440.482 263.075 440.923C262.654 441.364 262.119 441.585 261.467 441.585ZM276.368 441.585C274.75 441.585 273.311 441.301 272.05 440.734C270.81 440.145 269.833 439.347 269.119 438.338C268.404 437.33 268.047 436.163 268.047 434.84C268.047 433.705 268.247 432.77 268.646 432.034C269.066 431.278 269.539 430.69 270.064 430.269C270.611 429.828 271.083 429.513 271.483 429.324C271.903 429.135 272.113 429.04 272.113 429.04V428.851C272.113 428.851 271.934 428.777 271.577 428.63C271.22 428.462 270.81 428.189 270.348 427.811C269.907 427.433 269.507 426.928 269.15 426.298C268.814 425.667 268.646 424.89 268.646 423.965C268.646 422.726 268.972 421.633 269.623 420.687C270.274 419.742 271.178 418.996 272.334 418.45C273.51 417.903 274.855 417.63 276.368 417.63C277.902 417.63 279.247 417.903 280.403 418.45C281.579 418.996 282.493 419.742 283.145 420.687C283.796 421.633 284.122 422.715 284.122 423.934C284.122 424.879 283.943 425.667 283.586 426.298C283.25 426.928 282.851 427.433 282.388 427.811C281.926 428.189 281.516 428.462 281.159 428.63C280.823 428.777 280.655 428.851 280.655 428.851V429.04C280.655 429.04 280.854 429.135 281.254 429.324C281.674 429.513 282.147 429.828 282.672 430.269C283.218 430.69 283.691 431.278 284.09 432.034C284.511 432.77 284.721 433.705 284.721 434.84C284.721 436.163 284.364 437.33 283.649 438.338C282.935 439.347 281.947 440.145 280.686 440.734C279.447 441.301 278.007 441.585 276.368 441.585ZM276.368 427.622C277.734 427.622 278.785 427.264 279.52 426.55C280.256 425.815 280.623 424.995 280.623 424.092C280.623 423.146 280.256 422.316 279.52 421.601C278.785 420.866 277.734 420.498 276.368 420.498C275.023 420.498 273.983 420.866 273.248 421.601C272.512 422.316 272.145 423.146 272.145 424.092C272.145 424.995 272.512 425.815 273.248 426.55C273.983 427.264 275.023 427.622 276.368 427.622ZM276.368 438.653C277.44 438.653 278.333 438.454 279.047 438.055C279.762 437.634 280.298 437.109 280.655 436.479C281.033 435.827 281.222 435.155 281.222 434.461C281.222 433.789 281.043 433.148 280.686 432.539C280.329 431.908 279.793 431.393 279.079 430.994C278.364 430.595 277.461 430.395 276.368 430.395C275.296 430.395 274.403 430.595 273.689 430.994C272.975 431.393 272.439 431.908 272.082 432.539C271.724 433.148 271.546 433.789 271.546 434.461C271.546 435.155 271.724 435.827 272.082 436.479C272.46 437.109 273.006 437.634 273.721 438.055C274.435 438.454 275.317 438.653 276.368 438.653ZM297.314 441.553C295.822 441.553 294.498 441.238 293.342 440.608C292.208 439.977 291.251 439.105 290.474 437.992C289.697 436.878 289.108 435.607 288.709 434.178C288.31 432.728 288.11 431.194 288.11 429.576C288.11 427.958 288.31 426.434 288.709 425.006C289.108 423.556 289.697 422.274 290.474 421.16C291.251 420.047 292.208 419.174 293.342 418.544C294.498 417.914 295.822 417.599 297.314 417.599C298.806 417.599 300.119 417.914 301.254 418.544C302.409 419.174 303.376 420.047 304.153 421.16C304.931 422.274 305.519 423.556 305.918 425.006C306.318 426.434 306.517 427.958 306.517 429.576C306.517 431.194 306.318 432.728 305.918 434.178C305.519 435.607 304.931 436.878 304.153 437.992C303.376 439.105 302.409 439.977 301.254 440.608C300.119 441.238 298.806 441.553 297.314 441.553ZM297.314 438.244C298.869 438.244 300.161 437.519 301.191 436.069C302.22 434.598 302.735 432.434 302.735 429.576C302.735 426.739 302.22 424.596 301.191 423.146C300.161 421.696 298.869 420.971 297.314 420.971C295.759 420.971 294.466 421.696 293.437 423.146C292.407 424.596 291.892 426.739 291.892 429.576C291.892 432.413 292.397 434.566 293.405 436.037C294.435 437.508 295.738 438.244 297.314 438.244ZM318.86 441.553C317.368 441.553 316.044 441.238 314.889 440.608C313.754 439.977 312.798 439.105 312.02 437.992C311.243 436.878 310.655 435.607 310.255 434.178C309.856 432.728 309.656 431.194 309.656 429.576C309.656 427.958 309.856 426.434 310.255 425.006C310.655 423.556 311.243 422.274 312.02 421.16C312.798 420.047 313.754 419.174 314.889 418.544C316.044 417.914 317.368 417.599 318.86 417.599C320.352 417.599 321.665 417.914 322.8 418.544C323.956 419.174 324.922 420.047 325.7 421.16C326.477 422.274 327.066 423.556 327.465 425.006C327.864 426.434 328.064 427.958 328.064 429.576C328.064 431.194 327.864 432.728 327.465 434.178C327.066 435.607 326.477 436.878 325.7 437.992C324.922 439.105 323.956 439.977 322.8 440.608C321.665 441.238 320.352 441.553 318.86 441.553ZM318.86 438.244C320.415 438.244 321.707 437.519 322.737 436.069C323.767 434.598 324.281 432.434 324.281 429.576C324.281 426.739 323.767 424.596 322.737 423.146C321.707 421.696 320.415 420.971 318.86 420.971C317.305 420.971 316.013 421.696 314.983 423.146C313.954 424.596 313.439 426.739 313.439 429.576C313.439 432.413 313.943 434.566 314.952 436.037C315.981 437.508 317.284 438.244 318.86 438.244ZM334.386 441.585C333.735 441.585 333.189 441.364 332.747 440.923C332.327 440.461 332.117 439.925 332.117 439.315C332.117 438.685 332.327 438.149 332.747 437.708C333.189 437.267 333.735 437.046 334.386 437.046C335.038 437.046 335.574 437.267 335.994 437.708C336.435 438.149 336.656 438.685 336.656 439.315C336.656 439.946 336.435 440.482 335.994 440.923C335.574 441.364 335.038 441.585 334.386 441.585ZM349.539 441.585C348.048 441.585 346.797 441.375 345.789 440.954C344.801 440.513 343.992 439.967 343.362 439.315C342.752 438.643 342.28 437.96 341.943 437.267C341.628 436.573 341.407 435.953 341.281 435.407C341.176 434.861 341.124 434.493 341.124 434.304H344.559C344.559 434.304 344.58 434.451 344.622 434.745C344.685 435.018 344.791 435.365 344.938 435.785C345.106 436.205 345.368 436.626 345.726 437.046C346.083 437.445 346.566 437.792 347.176 438.086C347.785 438.359 348.562 438.496 349.508 438.496C350.643 438.496 351.578 438.254 352.313 437.771C353.07 437.288 353.626 436.668 353.984 435.911C354.362 435.155 354.551 434.356 354.551 433.516C354.551 432.675 354.362 431.866 353.984 431.089C353.626 430.29 353.08 429.649 352.345 429.166C351.609 428.662 350.706 428.41 349.634 428.41C348.794 428.41 348.09 428.546 347.522 428.819C346.976 429.093 346.535 429.408 346.198 429.765C345.883 430.101 345.652 430.406 345.505 430.679C345.379 430.952 345.316 431.089 345.316 431.089H341.691L343.614 417.945H356.537V421.192H346.23L345.347 427.401H345.442C345.631 427.191 345.915 426.939 346.293 426.645C346.671 426.329 347.176 426.056 347.806 425.825C348.457 425.573 349.287 425.447 350.296 425.447C351.998 425.447 353.427 425.836 354.583 426.613C355.759 427.37 356.642 428.368 357.23 429.607C357.84 430.826 358.144 432.108 358.144 433.453C358.144 434.461 357.966 435.449 357.608 436.416C357.251 437.382 356.715 438.254 356.001 439.032C355.307 439.809 354.414 440.429 353.322 440.891C352.25 441.354 350.989 441.585 349.539 441.585ZM370.941 441.553C369.449 441.553 368.125 441.238 366.969 440.608C365.835 439.977 364.879 439.105 364.101 437.992C363.324 436.878 362.735 435.607 362.336 434.178C361.937 432.728 361.737 431.194 361.737 429.576C361.737 427.958 361.937 426.434 362.336 425.006C362.735 423.556 363.324 422.274 364.101 421.16C364.879 420.047 365.835 419.174 366.969 418.544C368.125 417.914 369.449 417.599 370.941 417.599C372.433 417.599 373.746 417.914 374.881 418.544C376.036 419.174 377.003 420.047 377.781 421.16C378.558 422.274 379.146 423.556 379.546 425.006C379.945 426.434 380.144 427.958 380.144 429.576C380.144 431.194 379.945 432.728 379.546 434.178C379.146 435.607 378.558 436.878 377.781 437.992C377.003 439.105 376.036 439.977 374.881 440.608C373.746 441.238 372.433 441.553 370.941 441.553ZM370.941 438.244C372.496 438.244 373.788 437.519 374.818 436.069C375.847 434.598 376.362 432.434 376.362 429.576C376.362 426.739 375.847 424.596 374.818 423.146C373.788 421.696 372.496 420.971 370.941 420.971C369.386 420.971 368.094 421.696 367.064 423.146C366.034 424.596 365.52 426.739 365.52 429.576C365.52 432.413 366.024 434.566 367.032 436.037C368.062 437.508 369.365 438.244 370.941 438.244Z" fill="#111111"/>
</g>
<path d="M131 307.814H590V469.35C590 482.406 579.416 492.99 566.361 492.99H154.639C141.584 492.99 131 482.406 131 469.35V307.814Z" fill="url(#paint0_linear_69_1492)"/>
<line x1="-45" y1="67.5" x2="737" y2="67.5001" stroke="black" stroke-opacity="0.05"/>
<circle cx="34" cy="34" r="7" fill="#184F53"/>
<circle cx="34" cy="34" r="6.5" stroke="black" stroke-opacity="0.05"/>
<circle cx="58" cy="34" r="7" fill="#184F53"/>
<circle cx="58" cy="34" r="6.5" stroke="black" stroke-opacity="0.05"/>
<circle cx="82" cy="34" r="7" fill="#184F53"/>
<circle cx="82" cy="34" r="6.5" stroke="black" stroke-opacity="0.05"/>
</g>
<defs>
<filter id="filter0_d_69_1492" x="139.864" y="93.0915" width="236.395" height="257.079" filterUnits="userSpaceOnUse" color-interpolation-filters="sRGB">
<feFlood flood-opacity="0" result="BackgroundImageFix"/>
<feColorMatrix in="SourceAlpha" type="matrix" values="0 0 0 0 0 0 0 0 0 0 0 0 0 0 0 0 0 0 127 0" result="hardAlpha"/>
<feOffset dy="7.87983"/>
<feGaussianBlur stdDeviation="15.7597"/>
<feComposite in2="hardAlpha" operator="out"/>
<feColorMatrix type="matrix" values="0 0 0 0 0.117647 0 0 0 0 0.117647 0 0 0 0 0.117647 0 0 0 0.08 0"/>
<feBlend mode="normal" in2="BackgroundImageFix" result="effect1_dropShadow_69_1492"/>
<feBlend mode="normal" in="SourceGraphic" in2="effect1_dropShadow_69_1492" result="shape"/>
</filter>
<filter id="filter1_d_69_1492" x="342.77" y="114.803" width="246.078" height="213.657" filterUnits="userSpaceOnUse" color-interpolation-filters="sRGB">
<feFlood flood-opacity="0" result="BackgroundImageFix"/>
<feColorMatrix in="SourceAlpha" type="matrix" values="0 0 0 0 0 0 0 0 0 0 0 0 0 0 0 0 0 0 127 0" result="hardAlpha"/>
<feOffset dx="5.90987" dy="7.87983"/>
<feGaussianBlur stdDeviation="19.6996"/>
<feComposite in2="hardAlpha" operator="out"/>
<feColorMatrix type="matrix" values="0 0 0 0 0.117647 0 0 0 0 0.117647 0 0 0 0 0.117647 0 0 0 0.16 0"/>
<feBlend mode="normal" in2="BackgroundImageFix" result="effect1_dropShadow_69_1492"/>
<feBlend mode="normal" in="SourceGraphic" in2="effect1_dropShadow_69_1492" result="shape"/>
</filter>
<filter id="filter2_d_69_1492" x="138.879" y="317.667" width="443.241" height="196.996" filterUnits="userSpaceOnUse" color-interpolation-filters="sRGB">
<feFlood flood-opacity="0" result="BackgroundImageFix"/>
<feColorMatrix in="SourceAlpha" type="matrix" values="0 0 0 0 0 0 0 0 0 0 0 0 0 0 0 0 0 0 127 0" result="hardAlpha"/>
<feOffset dy="7.87983"/>
<feGaussianBlur stdDeviation="15.7597"/>
<feComposite in2="hardAlpha" operator="out"/>
<feColorMatrix type="matrix" values="0 0 0 0 0.117647 0 0 0 0 0.117647 0 0 0 0 0.117647 0 0 0 0.08 0"/>
<feBlend mode="normal" in2="BackgroundImageFix" result="effect1_dropShadow_69_1492"/>
<feBlend mode="normal" in="SourceGraphic" in2="effect1_dropShadow_69_1492" result="shape"/>
</filter>
<linearGradient id="paint0_linear_69_1492" x1="360.5" y1="307.814" x2="360.5" y2="450.636" gradientUnits="userSpaceOnUse">
<stop stop-color="white" stop-opacity="0"/>
<stop offset="1" stop-color="white"/>
</linearGradient>
<clipPath id="clip0_69_1492">
<rect width="721" height="520" rx="18" fill="white"/>
</clipPath>
<clipPath id="clip1_69_1492">
<rect width="98.4979" height="90.618" fill="white" transform="translate(208.813 132.489)"/>
</clipPath>
</defs>
</svg>
